# xmcd CD database file
#
# Track frame offsets:
#	150
#	26217
#	48348
#	68384
#	93353
#	122800
#	139652
#	168868
#	193724
#	216005
#	234005
#
# Disc length: 3406 seconds
#
# Revision: 0
# Processed by: cddbd v1.5.1PL2 Copyright (c) Steve Scherf et al.
# Submitted via: CDex 1.51
#
DISCID=8b0d4c0b
DTITLE=:nu - Green Fingers
DYEAR=2005
DGENRE=Jazz
TTITLE0=Important occurence
TTITLE1=Now it's time
TTITLE2=Appointment with the doctor
TTITLE3=Institution musican
TTITLE4=Here we go again
TTITLE5=Contemplative gathering
TTITLE6=No patience left
TTITLE7=Dangerous modes
TTITLE8=King Arthur's escapades
TTITLE9=Picture yourself in a boat
TTITLE10=Pluto love
EXTD=YEAR: 2005
EXTT0=
EXTT1=
EXTT2=
EXTT3=
EXTT4=
EXTT5=
EXTT6=
EXTT7=
EXTT8=
EXTT9=
EXTT10=
PLAYORDER=
